<?xml version="1.0" encoding="UTF-8" standalone="no"?>
<!-- Created with Inkscape (http://www.inkscape.org/) -->

<svg
   xmlns:osb="http://www.openswatchbook.org/uri/2009/osb"
   xmlns:dc="http://purl.org/dc/elements/1.1/"
   xmlns:cc="http://creativecommons.org/ns#"
   xmlns:rdf="http://www.w3.org/1999/02/22-rdf-syntax-ns#"
   xmlns:svg="http://www.w3.org/2000/svg"
   xmlns="http://www.w3.org/2000/svg"
   xmlns:xlink="http://www.w3.org/1999/xlink"
   xmlns:sodipodi="http://sodipodi.sourceforge.net/DTD/sodipodi-0.dtd"
   xmlns:inkscape="http://www.inkscape.org/namespaces/inkscape"
   width="500"
   height="250"
   viewBox="0 0 132.29166 66.145835"
   version="1.1"
   id="svg8"
   inkscape:version="0.92.3 (2405546, 2018-03-11)"
   sodipodi:docname="mfw-3.svg">
  <defs
     id="defs2">
    <linearGradient
       id="linearGradient5709"
       inkscape:collect="always">
      <stop
         id="stop5705"
         offset="0"
         style="stop-color:#cccccc;stop-opacity:1;" />
      <stop
         id="stop5707"
         offset="1"
         style="stop-color:#cccccc;stop-opacity:0;" />
    </linearGradient>
    <linearGradient
       osb:paint="solid"
       id="linearGradient2448">
      <stop
         id="stop2446"
         offset="0"
         style="stop-color:#2e2e22;stop-opacity:1;" />
    </linearGradient>
    <linearGradient
       id="linearGradient871"
       inkscape:collect="always">
      <stop
         id="stop867"
         offset="0"
         style="stop-color:#2e2e22;stop-opacity:1" />
      <stop
         id="stop869"
         offset="1"
         style="stop-color:#2e2e22;stop-opacity:0;" />
    </linearGradient>
    <radialGradient
       gradientTransform="matrix(-2.1153823,2.1153825,-4.0488148,-4.0488148,-70.609626,515.89045)"
       gradientUnits="userSpaceOnUse"
       r="134.90456"
       fy="39.896511"
       fx="-160.12492"
       cy="39.896511"
       cx="-160.12492"
       id="radialGradient873"
       xlink:href="#linearGradient871"
       inkscape:collect="always" />
    <clipPath
       id="clipPath1053-7-0-63-0-3-4"
       clipPathUnits="userSpaceOnUse">
      <path
         clip-path="none"
         style="fill:#ffffff;fill-opacity:1;stroke:#ffa500;stroke-width:1.05833328;stroke-miterlimit:4;stroke-dasharray:none;stroke-opacity:1"
         d="m 295.94257,12.711193 c -1.85984,-0.63504 -6.84178,-3.2800084 -6.97727,-3.7043202 -0.0273,-0.0856 0.32811,-0.222999 0.91416,-0.353269 6.03488,-1.341469 12.94042,-6.4802811 17.5174,-13.035661 0.3543,-0.5074391 0.6976,-0.9226291 0.76287,-0.9226291 0.0653,0 0.57592,0.2492481 1.13475,0.5538679 0.59176,0.3225731 1.09775,0.5225211 1.21168,0.478812 0.14949,-0.0574 0.19545,-0.2530208 0.19495,-0.830602 -2.4e-4,-0.929618 -0.58817,-9.7557976 -0.67355,-10.1201876 -0.034,-0.14474 -0.15272,-0.29811 -0.264,-0.34081 -0.13034,-0.05 -1.91397,0.83443 -5.01304,2.48584 -5.64755,3.00946 -5.43967,2.80341 -3.76764,3.7342596 0.5737,0.3193701 1.06236,0.6385901 1.08596,0.7093601 0.0236,0.0708 -0.34843,0.64931 -0.82672,1.2856501 -4.01108,5.3366209 -9.1136,8.9395689 -13.70118,9.6745999 -1.79533,0.28765 -3.97309,-0.0345 -5.5186,-0.81634 -0.31655,-0.160131 -0.60169,-0.333701 -0.63368,-0.38572 -0.032,-0.052 0.69744,-0.0961 1.62094,-0.098 2.10368,-0.004 3.16474,-0.26349096 5.25656,-1.28391197 2.65703,-1.29614903 5.39099,-3.62481013 7.41098,-6.31233913 l 0.89514,-1.1909698 0.60351,0.30582 c 0.67329,0.3411699 0.92821,0.3796099 1.00875,0.1520799 0.0742,-0.2096601 -0.35607,-6.5679997 -0.45532,-6.7286197 -0.0436,-0.0705 -0.15417,-0.12824 -0.24574,-0.12824 -0.0916,0 -1.45812,0.68909 -3.03681,1.53132 -3.11642,1.6626 -3.31428,1.83675 -2.55805,2.25146 1,0.5484098 0.99473,0.5085196 0.20297,1.5422496 -0.92594,1.2088902 -3.00549,3.204329 -4.09245,3.926941 -1.21962,0.8108072 -2.52031,1.406348 -3.59261,1.6449091 -2.2246,0.494919 -4.14965,-0.1241899 -5.93379,-1.9083311 -1.05643,-1.0564389 -1.02007,-0.9562198 -1.43145,-3.945839 -0.26125,-1.8987596 -0.2972,-7.7355496 -0.0625,-10.1469296 0.28808,-2.959771 1.19454,-8.653759 1.41232,-8.87154 0.0304,-0.0305 4.25537,-1.131089 9.38874,-2.44592 l 9.33339,-2.3906 9.33079,2.390201 c 5.13191,1.314619 9.35596,2.415378 9.38673,2.446139 0.21405,0.214079 1.1294,5.963279 1.4125,8.87172 0.23601,2.42489 0.19887,8.25108 -0.0647,10.1469296 -0.68371,4.9176911 -1.88708,7.9690591 -4.52167,11.4654401 -1.03508,1.3736511 -3.82027,4.123349 -5.37316,5.304639 -2.55344,1.94246 -5.86608,3.8472803 -8.3774,4.8171423 -1.52839,0.59028 -1.86237,0.617479 -2.96373,0.241419 z"
         id="path1055-8-3-3-7-4-6"
         inkscape:connector-curvature="0" />
    </clipPath>
    <clipPath
       id="clipPath1049-6-3-2-9-8-5"
       clipPathUnits="userSpaceOnUse">
      <path
         clip-path="none"
         style="fill:#ffffff;fill-opacity:1;stroke:#ffa500;stroke-width:1.05833328;stroke-miterlimit:4;stroke-dasharray:none;stroke-opacity:1"
         d="m 242.52451,25.617737 c -1.85983,-0.63504 -6.84178,-3.28001 -6.97728,-3.70432 -0.0273,-0.0856 0.32812,-0.223 0.91417,-0.35327 6.03487,-1.34147 12.94043,-6.48028 17.51739,-13.0356604 0.35431,-0.5074399 0.6976,-0.9226299 0.76288,-0.9226299 0.0653,0 0.57592,0.24925 1.13476,0.55387 0.59175,0.32257 1.09775,0.5225201 1.21166,0.4788099 0.14951,-0.0574 0.19544,-0.25302 0.19497,-0.8305999 -2.6e-4,-0.9296201 -0.58819,-9.7558 -0.67356,-10.12019 -0.034,-0.14474 -0.15272,-0.29811 -0.26401,-0.34081 -0.13035,-0.05 -1.91395,0.83443 -5.01303,2.48584002 -5.64756,3.00945998 -5.43968,2.80340998 -3.76763,3.73425988 0.57368,0.3193701 1.06235,0.6385901 1.08594,0.7093601 0.0236,0.0708 -0.34843,0.64931 -0.82671,1.2856501 -4.01109,5.3366202 -9.11361,8.9395702 -13.70119,9.6746002 -1.79533,0.28765 -3.97307,-0.0345 -5.5186,-0.81634 -0.31654,-0.16013 -0.60169,-0.3337 -0.63368,-0.38572 -0.032,-0.052 0.69745,-0.0961 1.62096,-0.098 2.10366,-0.004 3.16473,-0.26349 5.25655,-1.28391 2.65703,-1.29615 5.39098,-3.6248103 7.41097,-6.3123403 l 0.89516,-1.1909701 0.6035,0.30582 c 0.67328,0.3411702 0.92821,0.3796101 1.00876,0.1520801 0.0742,-0.20966 -0.35607,-6.56799997 -0.45534,-6.72862 -0.0436,-0.0705 -0.15417,-0.12824 -0.24573,-0.12824 -0.0916,0 -1.45812,0.68909002 -3.03682,1.53132002 -3.1164,1.66260008 -3.31426,1.83675008 -2.55804,2.25146008 0.99999,0.54841 0.99473,0.5085199 0.20296,1.5422498 -0.92594,1.20889 -3.00547,3.2043302 -4.09243,3.9269401 -1.21962,0.81081 -2.52033,1.4063501 -3.59263,1.64491 -2.22458,0.4949203 -4.14964,-0.1241901 -5.93379,-1.90833 -1.05642,-1.05644 -1.02007,-0.95622 -1.43143,-3.94584 -0.26126,-1.8987599 -0.29722,-7.7355499 -0.0625,-10.1469301 0.28807,-2.9597699 1.19455,-8.6537596 1.41233,-8.8715396 0.0304,-0.0305 4.25536,-1.13109 9.38873,-2.44592 l 9.33338,-2.3906 9.33079,2.3902 c 5.13193,1.31462 9.35597,2.41538 9.38673,2.44614 0.21407,0.21408 1.12942,5.9632796 1.41251,8.8717196 0.23602,2.4248901 0.19885,8.2510802 -0.0647,10.1469301 -0.68371,4.91769 -1.88708,7.9690603 -4.52167,11.4654403 -1.03507,1.37365 -3.82027,4.12335 -5.37315,5.30464 -2.55345,1.94246 -5.86608,3.84728 -8.3774,4.81714 -1.5284,0.59028 -1.86237,0.61748 -2.96373,0.24142 z"
         id="path1051-14-1-5-2-0-7"
         inkscape:connector-curvature="0" />
    </clipPath>
    <clipPath
       id="clipPath1119-85-8-9-8-0"
       clipPathUnits="userSpaceOnUse">
      <path
         style="fill:#ffffff;fill-opacity:1;stroke:none;stroke-width:3.57850432;stroke-miterlimit:4;stroke-dasharray:none;stroke-opacity:1"
         d="m 134.97243,-82.73074 c -6.28854,-2.147239 -23.13387,-11.090579 -23.59199,-12.52525 -0.0923,-0.289438 1.10946,-0.75406 3.09101,-1.194528 20.40549,-4.535872 43.75498,-21.911512 59.23096,-44.076982 1.19801,-1.71582 2.35874,-3.11969 2.57946,-3.11969 0.2208,0 1.94738,0.84278 3.83693,1.87282 2.00086,1.09066 3.71178,1.76677 4.09697,1.61894 0.5055,-0.19408 0.6608,-0.85552 0.65922,-2.80844 -7.9e-4,-3.14332 -1.98883,-32.98697 -2.27749,-34.21907 -0.11496,-0.48941 -0.51635,-1.00799 -0.89269,-1.15237 -0.44074,-0.16907 -6.47153,2.82143 -16.95034,8.40528 -19.09593,10.17578 -18.393,9.47907 -12.73935,12.62652 1.93976,1.07987 3.59208,2.15924 3.67181,2.39853 0.0798,0.2394 -1.1781,2.19549 -2.79532,4.34712 -13.56256,18.04453 -30.81549,30.22706 -46.32738,32.71239 -6.07048,0.97262 -13.434032,-0.11666 -18.659844,-2.76026 -1.070337,-0.54145 -2.034471,-1.12833 -2.142638,-1.30423 -0.108201,-0.17582 2.358263,-0.32493 5.480894,-0.33136 7.113029,-0.0135 10.700818,-0.89093 17.773848,-4.34124 8.98412,-4.38262 18.22833,-12.25644 25.05845,-21.34369 l 3.02674,-4.02699 2.04059,1.03406 c 2.27654,1.15359 3.13856,1.28356 3.41088,0.51423 0.25089,-0.70892 -1.20393,-22.20815 -1.53959,-22.75125 -0.14742,-0.23838 -0.52129,-0.43361 -0.83091,-0.43361 -0.30972,0 -4.93029,2.33 -10.26825,5.1778 -10.53738,5.62169 -11.20643,6.21053 -8.64945,7.61278 3.38123,1.85432 3.36348,1.71944 0.6863,5.21475 -3.13085,4.08758 -10.16232,10.83469 -13.83759,13.27803 -4.12389,2.74156 -8.522001,4.75524 -12.147697,5.56187 -7.521893,1.67346 -14.031029,-0.41991 -20.063712,-6.45256 -3.572068,-3.57211 -3.449158,-3.23324 -4.840076,-13.34193 -0.883388,-6.42021 -1.00498,-26.15594 -0.211328,-34.30946 0.974072,-10.00776 4.039122,-29.26061 4.775494,-29.99698 0.102791,-0.10313 14.388494,-3.82455 31.745779,-8.27034 l 31.55869,-8.08321 31.54983,8.08186 c 17.35241,4.44508 31.63497,8.16707 31.73898,8.27108 0.72383,0.72383 3.8189,20.16339 4.77607,29.99759 0.79808,8.19923 0.67236,27.89909 -0.21877,34.30946 -2.31177,16.62804 -6.38071,26.9455 -15.28893,38.76768 -3.49984,4.64467 -12.9173,13.94214 -18.168,17.936391 -8.63389,6.567969 -19.8348,13.008671 -28.3262,16.28802 -5.16793,1.99589 -6.29717,2.087869 -10.02119,0.816311 z"
         id="path1121-49-4-2-92-27"
         inkscape:connector-curvature="0" />
    </clipPath>
    <clipPath
       id="clipPath1123-30-8-7-5-8"
       clipPathUnits="userSpaceOnUse">
      <path
         style="fill:#ffffff;fill-opacity:1;stroke:none;stroke-width:3.57850432;stroke-miterlimit:4;stroke-dasharray:none;stroke-opacity:1"
         d="m 356.41807,-225.79281 c -6.28854,-2.14724 -23.13388,-11.09058 -23.592,-12.52525 -0.0923,-0.28944 1.10948,-0.75406 3.09102,-1.19453 20.40549,-4.53587 43.75499,-21.91151 59.23095,-44.07698 1.19803,-1.71582 2.35876,-3.11968 2.57947,-3.11968 0.2208,0 1.94739,0.84278 3.83694,1.8728 2.00086,1.09067 3.71176,1.76679 4.09697,1.61896 0.50548,-0.19407 0.66079,-0.85553 0.6592,-2.80844 0,-3.14331 -1.98882,-32.98698 -2.27748,-34.21907 -0.11496,-0.48943 -0.51636,-1.00798 -0.8927,-1.15239 -0.44074,-0.16907 -6.47152,2.82144 -16.95032,8.40531 -19.09593,10.17577 -18.39301,9.47904 -12.73937,12.62652 1.93977,1.07985 3.59209,2.15921 3.67181,2.39853 0.0798,0.2394 -1.17808,2.19546 -2.7953,4.3471 -13.56257,18.04454 -30.81549,30.22706 -46.3274,32.71239 -6.07047,0.97262 -13.43401,-0.11666 -18.65982,-2.76026 -1.07035,-0.54145 -2.03449,-1.12834 -2.14265,-1.30423 -0.10819,-0.17582 2.35826,-0.32494 5.4809,-0.33137 7.11303,-0.0135 10.70081,-0.89093 17.77383,-4.34123 8.98414,-4.38261 18.22834,-12.25645 25.05845,-21.3437 l 3.02676,-4.02698 2.04057,1.03407 c 2.27655,1.15358 3.13857,1.28355 3.4109,0.51422 0.25088,-0.70893 -1.20393,-22.20815 -1.53961,-22.75126 -0.1474,-0.23836 -0.52128,-0.4336 -0.8309,-0.4336 -0.30972,0 -4.9303,2.33 -10.26824,5.17779 -10.5374,5.62171 -11.20645,6.21054 -8.64947,7.61281 3.38125,1.8543 3.36349,1.71944 0.68631,5.21472 -3.13084,4.0876 -10.16233,10.83472 -13.83758,13.27804 -4.1239,2.74156 -8.52202,4.75525 -12.14771,5.56188 -7.52189,1.67344 -14.03104,-0.41992 -20.06372,-6.45258 -3.57206,-3.57211 -3.44916,-3.23323 -4.84008,-13.34193 -0.88339,-6.42019 -1.00496,-26.15594 -0.21132,-34.30945 0.97409,-10.00775 4.03913,-29.26061 4.77549,-29.99697 0.10279,-0.10314 14.38849,-3.82455 31.74579,-8.27035 l 31.55868,-8.0832 31.54985,8.08185 c 17.3524,4.44508 31.63496,8.16708 31.73896,8.27109 0.72385,0.72382 3.81892,20.16339 4.77608,29.99758 0.79809,8.19923 0.67236,27.8991 -0.21876,34.30945 -2.31177,16.62806 -6.38072,26.94551 -15.28895,38.76769 -3.49983,4.64467 -12.9173,13.94214 -18.16798,17.93639 -8.63389,6.56797 -19.83481,13.00867 -28.32622,16.28802 -5.16792,1.99589 -6.29716,2.08787 -10.02117,0.81631 z"
         id="path1125-5-4-7-15-1"
         inkscape:connector-curvature="0" />
    </clipPath>
    <clipPath
       id="clipPath1053-7-0-63-0-3-4-7"
       clipPathUnits="userSpaceOnUse">
      <path
         clip-path="none"
         style="fill:#ffffff;fill-opacity:1;stroke:#ffa500;stroke-width:1.05833328;stroke-miterlimit:4;stroke-dasharray:none;stroke-opacity:1"
         d="m 295.94257,12.711193 c -1.85984,-0.63504 -6.84178,-3.2800084 -6.97727,-3.7043202 -0.0273,-0.0856 0.32811,-0.222999 0.91416,-0.353269 6.03488,-1.341469 12.94042,-6.4802811 17.5174,-13.035661 0.3543,-0.5074391 0.6976,-0.9226291 0.76287,-0.9226291 0.0653,0 0.57592,0.2492481 1.13475,0.5538679 0.59176,0.3225731 1.09775,0.5225211 1.21168,0.478812 0.14949,-0.0574 0.19545,-0.2530208 0.19495,-0.830602 -2.4e-4,-0.929618 -0.58817,-9.7557976 -0.67355,-10.1201876 -0.034,-0.14474 -0.15272,-0.29811 -0.264,-0.34081 -0.13034,-0.05 -1.91397,0.83443 -5.01304,2.48584 -5.64755,3.00946 -5.43967,2.80341 -3.76764,3.7342596 0.5737,0.3193701 1.06236,0.6385901 1.08596,0.7093601 0.0236,0.0708 -0.34843,0.64931 -0.82672,1.2856501 -4.01108,5.3366209 -9.1136,8.9395689 -13.70118,9.6745999 -1.79533,0.28765 -3.97309,-0.0345 -5.5186,-0.81634 -0.31655,-0.160131 -0.60169,-0.333701 -0.63368,-0.38572 -0.032,-0.052 0.69744,-0.0961 1.62094,-0.098 2.10368,-0.004 3.16474,-0.26349096 5.25656,-1.28391197 2.65703,-1.29614903 5.39099,-3.62481013 7.41098,-6.31233913 l 0.89514,-1.1909698 0.60351,0.30582 c 0.67329,0.3411699 0.92821,0.3796099 1.00875,0.1520799 0.0742,-0.2096601 -0.35607,-6.5679997 -0.45532,-6.7286197 -0.0436,-0.0705 -0.15417,-0.12824 -0.24574,-0.12824 -0.0916,0 -1.45812,0.68909 -3.03681,1.53132 -3.11642,1.6626 -3.31428,1.83675 -2.55805,2.25146 1,0.5484098 0.99473,0.5085196 0.20297,1.5422496 -0.92594,1.2088902 -3.00549,3.204329 -4.09245,3.926941 -1.21962,0.8108072 -2.52031,1.406348 -3.59261,1.6449091 -2.2246,0.494919 -4.14965,-0.1241899 -5.93379,-1.9083311 -1.05643,-1.0564389 -1.02007,-0.9562198 -1.43145,-3.945839 -0.26125,-1.8987596 -0.2972,-7.7355496 -0.0625,-10.1469296 0.28808,-2.959771 1.19454,-8.653759 1.41232,-8.87154 0.0304,-0.0305 4.25537,-1.131089 9.38874,-2.44592 l 9.33339,-2.3906 9.33079,2.390201 c 5.13191,1.314619 9.35596,2.415378 9.38673,2.446139 0.21405,0.214079 1.1294,5.963279 1.4125,8.87172 0.23601,2.42489 0.19887,8.25108 -0.0647,10.1469296 -0.68371,4.9176911 -1.88708,7.9690591 -4.52167,11.4654401 -1.03508,1.3736511 -3.82027,4.123349 -5.37316,5.304639 -2.55344,1.94246 -5.86608,3.8472803 -8.3774,4.8171423 -1.52839,0.59028 -1.86237,0.617479 -2.96373,0.241419 z"
         id="path1055-8-3-3-7-4-6-4"
         inkscape:connector-curvature="0" />
    </clipPath>
    <clipPath
       id="clipPath1049-6-3-2-9-8-5-3"
       clipPathUnits="userSpaceOnUse">
      <path
         clip-path="none"
         style="fill:#ffffff;fill-opacity:1;stroke:#ffa500;stroke-width:1.05833328;stroke-miterlimit:4;stroke-dasharray:none;stroke-opacity:1"
         d="m 242.52451,25.617737 c -1.85983,-0.63504 -6.84178,-3.28001 -6.97728,-3.70432 -0.0273,-0.0856 0.32812,-0.223 0.91417,-0.35327 6.03487,-1.34147 12.94043,-6.48028 17.51739,-13.0356604 0.35431,-0.5074399 0.6976,-0.9226299 0.76288,-0.9226299 0.0653,0 0.57592,0.24925 1.13476,0.55387 0.59175,0.32257 1.09775,0.5225201 1.21166,0.4788099 0.14951,-0.0574 0.19544,-0.25302 0.19497,-0.8305999 -2.6e-4,-0.9296201 -0.58819,-9.7558 -0.67356,-10.12019 -0.034,-0.14474 -0.15272,-0.29811 -0.26401,-0.34081 -0.13035,-0.05 -1.91395,0.83443 -5.01303,2.48584002 -5.64756,3.00945998 -5.43968,2.80340998 -3.76763,3.73425988 0.57368,0.3193701 1.06235,0.6385901 1.08594,0.7093601 0.0236,0.0708 -0.34843,0.64931 -0.82671,1.2856501 -4.01109,5.3366202 -9.11361,8.9395702 -13.70119,9.6746002 -1.79533,0.28765 -3.97307,-0.0345 -5.5186,-0.81634 -0.31654,-0.16013 -0.60169,-0.3337 -0.63368,-0.38572 -0.032,-0.052 0.69745,-0.0961 1.62096,-0.098 2.10366,-0.004 3.16473,-0.26349 5.25655,-1.28391 2.65703,-1.29615 5.39098,-3.6248103 7.41097,-6.3123403 l 0.89516,-1.1909701 0.6035,0.30582 c 0.67328,0.3411702 0.92821,0.3796101 1.00876,0.1520801 0.0742,-0.20966 -0.35607,-6.56799997 -0.45534,-6.72862 -0.0436,-0.0705 -0.15417,-0.12824 -0.24573,-0.12824 -0.0916,0 -1.45812,0.68909002 -3.03682,1.53132002 -3.1164,1.66260008 -3.31426,1.83675008 -2.55804,2.25146008 0.99999,0.54841 0.99473,0.5085199 0.20296,1.5422498 -0.92594,1.20889 -3.00547,3.2043302 -4.09243,3.9269401 -1.21962,0.81081 -2.52033,1.4063501 -3.59263,1.64491 -2.22458,0.4949203 -4.14964,-0.1241901 -5.93379,-1.90833 -1.05642,-1.05644 -1.02007,-0.95622 -1.43143,-3.94584 -0.26126,-1.8987599 -0.29722,-7.7355499 -0.0625,-10.1469301 0.28807,-2.9597699 1.19455,-8.6537596 1.41233,-8.8715396 0.0304,-0.0305 4.25536,-1.13109 9.38873,-2.44592 l 9.33338,-2.3906 9.33079,2.3902 c 5.13193,1.31462 9.35597,2.41538 9.38673,2.44614 0.21407,0.21408 1.12942,5.9632796 1.41251,8.8717196 0.23602,2.4248901 0.19885,8.2510802 -0.0647,10.1469301 -0.68371,4.91769 -1.88708,7.9690603 -4.52167,11.4654403 -1.03507,1.37365 -3.82027,4.12335 -5.37315,5.30464 -2.55345,1.94246 -5.86608,3.84728 -8.3774,4.81714 -1.5284,0.59028 -1.86237,0.61748 -2.96373,0.24142 z"
         id="path1051-14-1-5-2-0-7-9"
         inkscape:connector-curvature="0" />
    </clipPath>
    <clipPath
       id="clipPath1119-85-8-9-8-0-8"
       clipPathUnits="userSpaceOnUse">
      <path
         style="fill:#ffffff;fill-opacity:1;stroke:none;stroke-width:3.57850432;stroke-miterlimit:4;stroke-dasharray:none;stroke-opacity:1"
         d="m 134.97243,-82.73074 c -6.28854,-2.147239 -23.13387,-11.090579 -23.59199,-12.52525 -0.0923,-0.289438 1.10946,-0.75406 3.09101,-1.194528 20.40549,-4.535872 43.75498,-21.911512 59.23096,-44.076982 1.19801,-1.71582 2.35874,-3.11969 2.57946,-3.11969 0.2208,0 1.94738,0.84278 3.83693,1.87282 2.00086,1.09066 3.71178,1.76677 4.09697,1.61894 0.5055,-0.19408 0.6608,-0.85552 0.65922,-2.80844 -7.9e-4,-3.14332 -1.98883,-32.98697 -2.27749,-34.21907 -0.11496,-0.48941 -0.51635,-1.00799 -0.89269,-1.15237 -0.44074,-0.16907 -6.47153,2.82143 -16.95034,8.40528 -19.09593,10.17578 -18.393,9.47907 -12.73935,12.62652 1.93976,1.07987 3.59208,2.15924 3.67181,2.39853 0.0798,0.2394 -1.1781,2.19549 -2.79532,4.34712 -13.56256,18.04453 -30.81549,30.22706 -46.32738,32.71239 -6.07048,0.97262 -13.434032,-0.11666 -18.659844,-2.76026 -1.070337,-0.54145 -2.034471,-1.12833 -2.142638,-1.30423 -0.108201,-0.17582 2.358263,-0.32493 5.480894,-0.33136 7.113029,-0.0135 10.700818,-0.89093 17.773848,-4.34124 8.98412,-4.38262 18.22833,-12.25644 25.05845,-21.34369 l 3.02674,-4.02699 2.04059,1.03406 c 2.27654,1.15359 3.13856,1.28356 3.41088,0.51423 0.25089,-0.70892 -1.20393,-22.20815 -1.53959,-22.75125 -0.14742,-0.23838 -0.52129,-0.43361 -0.83091,-0.43361 -0.30972,0 -4.93029,2.33 -10.26825,5.1778 -10.53738,5.62169 -11.20643,6.21053 -8.64945,7.61278 3.38123,1.85432 3.36348,1.71944 0.6863,5.21475 -3.13085,4.08758 -10.16232,10.83469 -13.83759,13.27803 -4.12389,2.74156 -8.522001,4.75524 -12.147697,5.56187 -7.521893,1.67346 -14.031029,-0.41991 -20.063712,-6.45256 -3.572068,-3.57211 -3.449158,-3.23324 -4.840076,-13.34193 -0.883388,-6.42021 -1.00498,-26.15594 -0.211328,-34.30946 0.974072,-10.00776 4.039122,-29.26061 4.775494,-29.99698 0.102791,-0.10313 14.388494,-3.82455 31.745779,-8.27034 l 31.55869,-8.08321 31.54983,8.08186 c 17.35241,4.44508 31.63497,8.16707 31.73898,8.27108 0.72383,0.72383 3.8189,20.16339 4.77607,29.99759 0.79808,8.19923 0.67236,27.89909 -0.21877,34.30946 -2.31177,16.62804 -6.38071,26.9455 -15.28893,38.76768 -3.49984,4.64467 -12.9173,13.94214 -18.168,17.936391 -8.63389,6.567969 -19.8348,13.008671 -28.3262,16.28802 -5.16793,1.99589 -6.29717,2.087869 -10.02119,0.816311 z"
         id="path1121-49-4-2-92-27-4"
         inkscape:connector-curvature="0" />
    </clipPath>
    <clipPath
       id="clipPath1123-30-8-7-5-8-9"
       clipPathUnits="userSpaceOnUse">
      <path
         style="fill:#ffffff;fill-opacity:1;stroke:none;stroke-width:3.57850432;stroke-miterlimit:4;stroke-dasharray:none;stroke-opacity:1"
         d="m 356.41807,-225.79281 c -6.28854,-2.14724 -23.13388,-11.09058 -23.592,-12.52525 -0.0923,-0.28944 1.10948,-0.75406 3.09102,-1.19453 20.40549,-4.53587 43.75499,-21.91151 59.23095,-44.07698 1.19803,-1.71582 2.35876,-3.11968 2.57947,-3.11968 0.2208,0 1.94739,0.84278 3.83694,1.8728 2.00086,1.09067 3.71176,1.76679 4.09697,1.61896 0.50548,-0.19407 0.66079,-0.85553 0.6592,-2.80844 0,-3.14331 -1.98882,-32.98698 -2.27748,-34.21907 -0.11496,-0.48943 -0.51636,-1.00798 -0.8927,-1.15239 -0.44074,-0.16907 -6.47152,2.82144 -16.95032,8.40531 -19.09593,10.17577 -18.39301,9.47904 -12.73937,12.62652 1.93977,1.07985 3.59209,2.15921 3.67181,2.39853 0.0798,0.2394 -1.17808,2.19546 -2.7953,4.3471 -13.56257,18.04454 -30.81549,30.22706 -46.3274,32.71239 -6.07047,0.97262 -13.43401,-0.11666 -18.65982,-2.76026 -1.07035,-0.54145 -2.03449,-1.12834 -2.14265,-1.30423 -0.10819,-0.17582 2.35826,-0.32494 5.4809,-0.33137 7.11303,-0.0135 10.70081,-0.89093 17.77383,-4.34123 8.98414,-4.38261 18.22834,-12.25645 25.05845,-21.3437 l 3.02676,-4.02698 2.04057,1.03407 c 2.27655,1.15358 3.13857,1.28355 3.4109,0.51422 0.25088,-0.70893 -1.20393,-22.20815 -1.53961,-22.75126 -0.1474,-0.23836 -0.52128,-0.4336 -0.8309,-0.4336 -0.30972,0 -4.9303,2.33 -10.26824,5.17779 -10.5374,5.62171 -11.20645,6.21054 -8.64947,7.61281 3.38125,1.8543 3.36349,1.71944 0.68631,5.21472 -3.13084,4.0876 -10.16233,10.83472 -13.83758,13.27804 -4.1239,2.74156 -8.52202,4.75525 -12.14771,5.56188 -7.52189,1.67344 -14.03104,-0.41992 -20.06372,-6.45258 -3.57206,-3.57211 -3.44916,-3.23323 -4.84008,-13.34193 -0.88339,-6.42019 -1.00496,-26.15594 -0.21132,-34.30945 0.97409,-10.00775 4.03913,-29.26061 4.77549,-29.99697 0.10279,-0.10314 14.38849,-3.82455 31.74579,-8.27035 l 31.55868,-8.0832 31.54985,8.08185 c 17.3524,4.44508 31.63496,8.16708 31.73896,8.27109 0.72385,0.72382 3.81892,20.16339 4.77608,29.99758 0.79809,8.19923 0.67236,27.8991 -0.21876,34.30945 -2.31177,16.62806 -6.38072,26.94551 -15.28895,38.76769 -3.49983,4.64467 -12.9173,13.94214 -18.16798,17.93639 -8.63389,6.56797 -19.83481,13.00867 -28.32622,16.28802 -5.16792,1.99589 -6.29716,2.08787 -10.02117,0.81631 z"
         id="path1125-5-4-7-15-1-4"
         inkscape:connector-curvature="0" />
    </clipPath>
    <radialGradient
       gradientUnits="userSpaceOnUse"
       gradientTransform="matrix(2.3466321,-1.3548287,0.31437524,0.5445139,-230.2067,260.40889)"
       r="317.21603"
       fy="206.90761"
       fx="122.64676"
       cy="206.90761"
       cx="122.64676"
       id="radialGradient5711"
       xlink:href="#linearGradient5709"
       inkscape:collect="always" />
    <clipPath
       id="clipPath6216"
       clipPathUnits="userSpaceOnUse">
      <rect
         y="-937.28125"
         x="-2980.5312"
         height="2050.5208"
         width="6469.0625"
         id="rect6218"
         style="opacity:1;fill:#000000;fill-opacity:1;fill-rule:evenodd;stroke:none;stroke-width:0.52916664;stroke-linecap:round;stroke-miterlimit:4;stroke-dasharray:none;stroke-opacity:1" />
    </clipPath>
    <clipPath
       id="clipPath6239"
       clipPathUnits="userSpaceOnUse">
      <rect
         y="-439.72205"
         x="-1985.1567"
         height="906.57922"
         width="4447.5713"
         id="rect6241"
         style="opacity:0.29600004;fill:#333333;fill-opacity:1;fill-rule:evenodd;stroke:none;stroke-width:4.82671642;stroke-linecap:round;stroke-miterlimit:4;stroke-dasharray:none;stroke-opacity:1" />
    </clipPath>
    <clipPath
       id="clipPath921"
       clipPathUnits="userSpaceOnUse">
      <rect
         y="303.97989"
         x="30.696417"
         height="2.8601148"
         width="9.7220106"
         id="rect923"
         style="opacity:1;fill:#262626;fill-opacity:1;fill-rule:evenodd;stroke:none;stroke-width:0.49691203;stroke-linecap:round;stroke-miterlimit:4;stroke-dasharray:none;stroke-opacity:1" />
    </clipPath>
    <clipPath
       id="clipPath955"
       clipPathUnits="userSpaceOnUse">
      <rect
         transform="rotate(50.138726)"
         y="251.03354"
         x="-45.623318"
         height="17.077589"
         width="50.988804"
         id="rect957"
         style="opacity:1;fill:#00ffff;fill-opacity:1;fill-rule:evenodd;stroke:none;stroke-width:0.44096777;stroke-linecap:round;stroke-miterlimit:4;stroke-dasharray:none;stroke-opacity:1" />
    </clipPath>
  </defs>
  <sodipodi:namedview
     id="base"
     pagecolor="#ffffff"
     bordercolor="#666666"
     borderopacity="1.0"
     inkscape:pageopacity="0.0"
     inkscape:pageshadow="2"
     inkscape:zoom="1.078852"
     inkscape:cx="189.0952"
     inkscape:cy="287.46493"
     inkscape:document-units="mm"
     inkscape:current-layer="g973"
     showgrid="true"
     showguides="false"
     inkscape:window-width="1920"
     inkscape:window-height="986"
     inkscape:window-x="-11"
     inkscape:window-y="-11"
     inkscape:window-maximized="1"
     inkscape:snap-bbox="false"
     inkscape:snap-bbox-midpoints="false"
     inkscape:bbox-nodes="false"
     inkscape:snap-intersection-paths="true"
     inkscape:bbox-paths="false"
     inkscape:snap-bbox-edge-midpoints="false"
     inkscape:snap-global="true"
     inkscape:snap-midpoints="true"
     inkscape:snap-smooth-nodes="true"
     units="px">
    <inkscape:grid
       type="xygrid"
       id="grid815"
       spacingy="0.13229167" />
  </sodipodi:namedview>
  <metadata
     id="metadata5">
    <rdf:RDF>
      <cc:Work
         rdf:about="">
        <dc:format>image/svg+xml</dc:format>
        <dc:type
           rdf:resource="http://purl.org/dc/dcmitype/StillImage" />
        <dc:title></dc:title>
      </cc:Work>
    </rdf:RDF>
  </metadata>
  <g
     inkscape:label="Layer 1"
     inkscape:groupmode="layer"
     id="layer1"
     transform="translate(0,-230.85415)">
    <g
       id="g1363"
       transform="translate(-99.218749,135.21993)">
      <g
         id="g902">
        <g
           id="g1064"
           transform="matrix(0.95041491,0,0,0.95041491,89.411649,-14.893674)">
          <g
             id="g973"
             transform="translate(2.5802778,-10.346757)">
            <g
               id="g930"
               transform="translate(2.0745787,5.0809251)">
              <g
                 transform="matrix(3.2400001,0,0,3.2400001,-311.15,-371.47801)"
                 id="g1023">
                <path
                   inkscape:connector-curvature="0"
                   style="fill:#000000;stroke:none;stroke-width:0.99999994px;stroke-linecap:butt;stroke-linejoin:miter;stroke-opacity:1"
                   d="m 375,585.01953 v 25 h 95 v 1.36524 h 10 v -1.36524 h 25 v 1.36524 h 10 v -1.36524 h 10 v -25 z"
                   id="path938"
                   transform="scale(0.26458333)" />
                <path
                   style="fill:#666666;fill-opacity:1;stroke:#1a1a1a;stroke-width:0.26458332px;stroke-linecap:butt;stroke-linejoin:miter;stroke-opacity:1"
                   d="m 125.67708,159.41666 v -2.64583 h 9.26042 v 2.64583 z"
                   id="path940"
                   inkscape:connector-curvature="0" />
                <g
                   id="g1063"
                   style="fill:#cccccc">
                  <path
                     inkscape:connector-curvature="0"
                     style="opacity:1;fill:#cccccc;fill-opacity:1;fill-rule:evenodd;stroke:none;stroke-width:0.27270344;stroke-linecap:round;stroke-miterlimit:4;stroke-dasharray:none;stroke-opacity:1"
                     d="m 123.34082,158.09375 a 3.3072917,3.3072917 0 0 1 -3.3073,3.30729 3.3072917,3.3072917 0 0 1 -3.30729,-3.30729 3.3072917,3.3072917 0 0 1 3.30729,-3.30729 3.3072917,3.3072917 0 0 1 3.3073,3.30729 z"
                     id="path942-0" />
                  <path
                     inkscape:connector-curvature="0"
                     style="opacity:1;fill:#cccccc;fill-opacity:1;fill-rule:evenodd;stroke:none;stroke-width:0.27326047;stroke-linecap:round;stroke-miterlimit:4;stroke-dasharray:none;stroke-opacity:1"
                     d="m 99.21875,154.78645 h 21.16667 v 6.61459 H 99.21875 Z"
                     id="rect1059" />
                </g>
                <g
                   transform="matrix(0.21850773,0,0,0.21850773,100.88846,94.64229)"
                   id="layer1-0"
                   inkscape:label="Layer 1"
                   style="fill:#4d4d4d">
                  <g
                     style="fill:#4d4d4d"
                     transform="matrix(0.02560319,0,0,0.02560319,0.60372017,283.77082)"
                     id="squares_1_">
                    <path
                       style="fill:#4d4d4d"
                       inkscape:connector-curvature="0"
                       class="st0"
                       d="M 578.2,392.7 V 24.3 h 25.6 v 344.1 h 175.3 v 24.3 H 578.2 Z m 327.5,5.1 C 866,397.8 835.3,385 812.3,360.7 790.6,336.4 779,301.9 779,257.1 c 0,-43.5 10.2,-79.3 32,-104.9 21.7,-26.9 49.9,-39.7 87,-39.7 32,0 57.6,11.5 76.8,33.3 19.2,23 28.1,53.7 28.1,92.1 v 20.5 H 804.6 c 0,37.1 9,66.5 26.9,85.7 16.6,20.5 42.2,29.4 74.2,29.4 15.3,0 29.4,-1.3 40.9,-3.8 11.5,-2.6 26.9,-6.4 44.8,-14.1 v 24.3 c -15.3,6.4 -29.4,11.5 -42.2,14.1 -14.3,2.6 -28.9,3.9 -43.5,3.8 z M 898,135.6 c -26.9,0 -47.3,9 -64,25.6 -15.3,17.9 -25.6,42.2 -28.1,75.5 h 168.9 c 0,-32 -6.4,-56.3 -20.5,-74.2 -12.8,-18 -32,-26.9 -56.3,-26.9 z m 238,-21.8 c 19.2,0 37.1,3.8 51.2,10.2 14.1,7.7 26.9,19.2 38.4,37.1 h 1.3 c -1.3,-21.7 -1.3,-42.2 -1.3,-62.7 V 0 h 24.3 v 392.7 h -16.6 l -6.4,-42.2 c -20.5,30.7 -51.2,47.3 -89.6,47.3 -38.4,0 -66.5,-11.5 -87,-35.8 -20.5,-23 -29.4,-57.6 -29.4,-102.3 0,-47.3 10.2,-83.2 29.4,-108.7 19.2,-25.6 48.6,-37.2 85.7,-37.2 z m 0,21.8 c -29.4,0 -52.4,10.2 -67.8,32 -15.3,20.5 -23,51.2 -23,92.1 0,78 30.7,116.4 90.8,116.4 30.7,0 53.7,-9 67.8,-26.9 14.1,-17.9 21.7,-47.3 21.7,-89.6 v -3.8 c 0,-42.2 -7.7,-72.9 -21.7,-90.8 C 1191,144.5 1168,135.6 1136,135.6 Z M 1515.9,119 v 17.9 l -56.3,3.8 c 15.3,19.2 23,39.7 23,61.4 0,26.9 -9,47.3 -26.9,64 -17.9,16.6 -40.9,24.3 -70.4,24.3 -12.8,0 -21.7,0 -25.6,-1.3 -10.2,5.1 -17.9,11.5 -23,17.9 -5.1,7.7 -7.7,14.1 -7.7,23 0,8.9 3.8,15.3 10.2,19.2 6.4,3.8 17.9,6.4 33.3,6.4 h 47.3 c 29.4,0 52.4,6.4 67.8,17.9 15.4,11.5 24.3,29.4 24.3,53.7 0,29.4 -11.5,51.2 -34.5,66.5 -23,15.3 -56.3,23 -99.8,23 -34.5,0 -61.4,-6.4 -80.6,-20.5 -19.2,-12.8 -28.1,-32 -28.1,-55 0,-19.2 6.4,-34.5 17.9,-47.3 11.5,-12.8 28.1,-20.5 47.3,-25.6 -7.7,-3.8 -15.3,-9 -19.2,-15.3 -5,-6.2 -7.7,-13.8 -7.7,-21.7 0,-17.9 11.5,-34.5 34.5,-48.6 -15.3,-6.4 -28.1,-16.6 -37.1,-30.7 -9,-14.1 -12.8,-30.7 -12.8,-48.6 0,-26.9 9,-49.9 25.6,-66.5 17.9,-16.6 40.9,-24.3 70.4,-24.3 17.9,0 32,1.3 42.2,5.1 h 85.7 v 1.3 z m -222.6,319.8 c 0,37.1 28.1,56.3 84.4,56.3 71.6,0 107.5,-23 107.5,-69.1 0,-16.6 -5.1,-28.1 -16.6,-35.8 -11.5,-7.7 -29.4,-11.5 -55,-11.5 h -44.8 c -49.9,1.2 -75.5,20.4 -75.5,60.1 z m 21.8,-235.4 c 0,21.7 6.4,37.1 19.2,49.9 12.8,11.5 29.4,17.9 51.2,17.9 23,0 40.9,-6.4 52.4,-17.9 12.8,-11.5 17.9,-28.1 17.9,-49.9 0,-23 -6.4,-40.9 -19.2,-52.4 -12.8,-11.5 -29.4,-17.9 -52.4,-17.9 -21.7,0 -39.7,6.4 -51.2,19.2 -12.8,11.4 -17.9,29.3 -17.9,51.1 z"
                       id="path12" />
                    <path
                       style="fill:#4d4d4d"
                       inkscape:connector-curvature="0"
                       class="st0"
                       d="m 1640,397.8 c -39.7,0 -70.4,-12.8 -93.4,-37.1 -21.7,-24.3 -33.3,-58.8 -33.3,-103.6 0,-43.5 10.2,-79.3 32,-104.9 21.7,-26.9 49.9,-39.7 87,-39.7 32,0 57.6,11.5 76.8,33.3 19.2,23 28.1,53.7 28.1,92.1 v 20.5 h -197 c 0,37.1 9,66.5 26.9,85.7 16.6,20.5 42.2,29.4 74.2,29.4 15.3,0 29.4,-1.3 40.9,-3.8 11.5,-2.6 26.9,-6.4 44.8,-14.1 v 24.3 c -15.3,6.4 -29.4,11.5 -42.2,14.1 -14.1,2.6 -28.2,3.8 -44.8,3.8 z m -6.4,-262.2 c -26.9,0 -47.3,9 -64,25.6 -15.3,17.9 -25.6,42.2 -28.1,75.5 h 168.9 c 0,-32 -6.4,-56.3 -20.5,-74.2 -12.8,-18 -32,-26.9 -56.3,-26.9 z m 245.6,-21.8 c 11.5,0 24.3,1.3 37.1,3.8 l -5.1,24.3 c -11.8,-2.6 -23.8,-3.9 -35.8,-3.8 -23,0 -42.2,10.2 -57.6,29.4 -15.3,20.5 -23,44.8 -23,75.5 v 149.7 h -25.6 V 119 h 21.7 l 2.6,49.9 h 1.3 c 11.5,-20.5 23,-34.5 35.8,-42.2 15.4,-9 30.7,-12.9 48.6,-12.9 z M 333.9,12.8 h -183 V 258.4 H 396.5 V 76.7 C 396.6,42.2 368.4,12.8 333.9,12.8 Z m -239.2,0 H 64 c -34.5,0 -64,28.1 -64,64 v 30.7 H 94.7 Z M 0,165 h 94.7 v 94.7 H 0 Z m 301.9,245.6 h 30.7 c 34.5,0 64,-28.1 64,-64 V 316 H 301.9 Z M 150.9,316 h 94.7 v 94.7 H 150.9 Z M 0,316 v 30.7 c 0,34.5 28.1,64 64,64 H 94.7 V 316 Z"
                       id="path14" />
                  </g>
                </g>
                <path
                   style="opacity:0.25;fill:#ffffff;stroke:none;stroke-width:0.26458332px;stroke-linecap:butt;stroke-linejoin:miter;stroke-opacity:1"
                   d="m 124.35417,154.78645 14.55208,5.29167 v -5.29167 z"
                   id="path1197"
                   inkscape:connector-curvature="0" />
                <path
                   inkscape:connector-curvature="0"
                   style="opacity:1;fill:#ffffff;fill-opacity:1;fill-rule:evenodd;stroke:#000000;stroke-width:0.46302083;stroke-linecap:round;stroke-miterlimit:4;stroke-dasharray:none;stroke-opacity:1"
                   d="m 121.2221,158.09375 a 1.6304348,1.6304348 0 0 1 -1.63043,1.63043 1.6304348,1.6304348 0 0 1 -1.63044,-1.63043 1.6304348,1.6304348 0 0 1 1.63044,-1.63043 1.6304348,1.6304348 0 0 1 1.63043,1.63043 z"
                   id="path942" />
                <g
                   id="g938"
                   style="fill:#55b3da;fill-opacity:1"
                   transform="matrix(0.78466717,0,0,0.78466717,27.87992,40.999718)">
                  <g
                     transform="matrix(0.09446152,0,0,0.09446152,118.0244,136.36434)"
                     id="g929"
                     style="fill:#55b3da;fill-opacity:1">
                    <g
                       aria-label="Allow Ledger"
                       style="font-style:normal;font-variant:normal;font-weight:normal;font-stretch:normal;font-size:10.58333302px;line-height:1.25;font-family:sans-serif;-inkscape-font-specification:'sans-serif, Normal';font-variant-ligatures:normal;font-variant-caps:normal;font-variant-numeric:normal;font-feature-settings:normal;text-align:start;letter-spacing:0px;word-spacing:0px;writing-mode:lr-tb;text-anchor:start;fill:#55b3da;fill-opacity:1;stroke:none;stroke-width:0.26458332"
                       id="text879">
                      <path
                         d="m 107.11513,133.58307 h -1.09037 l -0.75447,-2.14457 h -3.32797 l -0.75447,2.14457 h -1.0387 l 2.80086,-7.69462 h 1.36426 z m -2.16007,-3.02307 -1.34875,-3.77755 -1.35393,3.77755 z"
                         style="fill:#55b3da;fill-opacity:1"
                         id="path941"
                         inkscape:connector-curvature="0" />
                      <path
                         d="m 109.18736,133.58307 h -0.97152 v -8.04085 h 0.97152 z"
                         style="fill:#55b3da;fill-opacity:1"
                         id="path943"
                         inkscape:connector-curvature="0" />
                      <path
                         d="m 112.10191,133.58307 h -0.97152 v -8.04085 h 0.97152 z"
                         style="fill:#55b3da;fill-opacity:1"
                         id="path945"
                         inkscape:connector-curvature="0" />
                      <path
                         d="m 118.95421,130.69952 q 0,1.41077 -0.72347,2.22726 -0.72347,0.81649 -1.93787,0.81649 -1.22473,0 -1.9482,-0.81649 -0.7183,-0.81649 -0.7183,-2.22726 0,-1.41076 0.7183,-2.22725 0.72347,-0.82166 1.9482,-0.82166 1.2144,0 1.93787,0.82166 0.72347,0.81649 0.72347,2.22725 z m -1.00253,0 q 0,-1.12137 -0.43925,-1.66398 -0.43925,-0.54777 -1.21956,-0.54777 -0.79065,0 -1.2299,0.54777 -0.43408,0.54261 -0.43408,1.66398 0,1.08521 0.43925,1.64848 0.43925,0.55811 1.22473,0.55811 0.77515,0 1.2144,-0.55294 0.44441,-0.55811 0.44441,-1.65365 z"
                         style="fill:#55b3da;fill-opacity:1"
                         id="path947"
                         inkscape:connector-curvature="0" />
                      <path
                         d="m 127.7237,127.81081 -1.50379,5.77226 h -0.89917 l -1.48311,-4.44934 -1.47278,4.44934 h -0.894 l -1.51929,-5.77226 h 1.01286 l 1.05937,4.47001 1.44177,-4.47001 h 0.80098 l 1.47795,4.47001 1.00252,-4.47001 z"
                         style="fill:#55b3da;fill-opacity:1"
                         id="path949"
                         inkscape:connector-curvature="0" />
                      <path
                         d="m 137.79027,133.58307 h -4.86792 v -7.69462 h 1.02319 v 6.78511 h 3.84473 z"
                         style="fill:#55b3da;fill-opacity:1"
                         id="path951"
                         inkscape:connector-curvature="0" />
                      <path
                         d="m 143.56769,130.79771 h -4.25297 q 0,0.53227 0.1602,0.93017 0.16019,0.39275 0.43925,0.64596 0.26871,0.24805 0.63562,0.37207 0.37207,0.12402 0.81648,0.12402 0.58912,0 1.18339,-0.23254 0.59945,-0.23771 0.85267,-0.46509 h 0.0517 v 1.05937 q -0.49092,0.2067 -1.00252,0.34623 -0.5116,0.13953 -1.07487,0.13953 -1.43661,0 -2.24276,-0.77515 -0.80615,-0.78031 -0.80615,-2.21175 0,-1.41593 0.76998,-2.24792 0.77515,-0.832 2.03605,-0.832 1.16789,0 1.79834,0.68213 0.63562,0.68213 0.63562,1.93787 z m -0.94568,-0.74414 q -0.005,-0.76481 -0.38757,-1.18339 -0.37724,-0.41858 -1.15239,-0.41858 -0.78031,0 -1.2454,0.45992 -0.45992,0.45992 -0.52193,1.14205 z"
                         style="fill:#55b3da;fill-opacity:1"
                         id="path953"
                         inkscape:connector-curvature="0" />
                      <path
                         d="m 149.72235,133.58307 h -0.97151 v -0.60462 q -0.41858,0.36174 -0.87334,0.56328 -0.45475,0.20154 -0.98702,0.20154 -1.03352,0 -1.64331,-0.79582 -0.60461,-0.79582 -0.60461,-2.20658 0,-0.73381 0.2067,-1.30742 0.21188,-0.57361 0.56845,-0.97668 0.3514,-0.39274 0.81648,-0.59945 0.47026,-0.20671 0.97152,-0.20671 0.45475,0 0.80615,0.0982 0.3514,0.093 0.73898,0.29456 v -2.50114 h 0.97151 z m -0.97151,-1.4211 v -3.31246 q -0.39275,-0.1757 -0.7028,-0.24288 -0.31006,-0.0672 -0.67697,-0.0672 -0.81648,0 -1.27124,0.56844 -0.45475,0.56844 -0.45475,1.6123 0,1.02837 0.3514,1.5658 0.3514,0.53227 1.12655,0.53227 0.41341,0 0.83716,-0.18087 0.42374,-0.18603 0.79065,-0.47542 z"
                         style="fill:#55b3da;fill-opacity:1"
                         id="path955"
                         inkscape:connector-curvature="0" />
                      <path
                         d="m 156.31627,132.92678 q 0,1.46761 -0.66663,2.15491 -0.66663,0.68729 -2.05155,0.68729 -0.45992,0 -0.89917,-0.0672 -0.43409,-0.062 -0.85783,-0.18086 v -0.99219 h 0.0517 q 0.23772,0.093 0.75448,0.22737 0.51676,0.13953 1.03353,0.13953 0.49609,0 0.82165,-0.11886 0.32557,-0.11885 0.50643,-0.33072 0.18087,-0.20154 0.25838,-0.48576 0.0775,-0.28422 0.0775,-0.63562 v -0.5271 q -0.43925,0.3514 -0.84233,0.5271 -0.39791,0.17053 -1.01802,0.17053 -1.03353,0 -1.64331,-0.74414 -0.60462,-0.74931 -0.60462,-2.1084 0,-0.74414 0.20671,-1.28158 0.21187,-0.5426 0.57361,-0.93534 0.33589,-0.3669 0.81648,-0.56844 0.4806,-0.20671 0.95602,-0.20671 0.50126,0 0.83716,0.10336 0.34106,0.0982 0.7183,0.30489 l 0.062,-0.24805 h 0.90951 z m -0.97152,-0.93018 v -3.14709 q -0.38757,-0.1757 -0.72347,-0.24805 -0.33073,-0.0775 -0.66146,-0.0775 -0.80098,0 -1.2609,0.53743 -0.45992,0.53744 -0.45992,1.56063 0,0.97152 0.34106,1.47278 0.34106,0.50126 1.13171,0.50126 0.42375,0 0.8475,-0.1602 0.42891,-0.16536 0.78548,-0.43925 z"
                         style="fill:#55b3da;fill-opacity:1"
                         id="path957"
                         inkscape:connector-curvature="0" />
                      <path
                         d="m 163.06004,130.79771 h -4.25297 q 0,0.53227 0.16019,0.93017 0.1602,0.39275 0.43925,0.64596 0.26872,0.24805 0.63562,0.37207 0.37207,0.12402 0.81649,0.12402 0.58911,0 1.18339,-0.23254 0.59945,-0.23771 0.85266,-0.46509 h 0.0517 v 1.05937 q -0.49093,0.2067 -1.00252,0.34623 -0.5116,0.13953 -1.07487,0.13953 -1.43661,0 -2.24276,-0.77515 -0.80615,-0.78031 -0.80615,-2.21175 0,-1.41593 0.76998,-2.24792 0.77514,-0.832 2.03605,-0.832 1.16789,0 1.79834,0.68213 0.63562,0.68213 0.63562,1.93787 z m -0.94568,-0.74414 q -0.005,-0.76481 -0.38757,-1.18339 -0.37724,-0.41858 -1.15239,-0.41858 -0.78031,0 -1.2454,0.45992 -0.45992,0.45992 -0.52193,1.14205 z"
                         style="fill:#55b3da;fill-opacity:1"
                         id="path959"
                         inkscape:connector-curvature="0" />
                      <path
                         d="m 168.13467,128.87018 h -0.0517 q -0.21704,-0.0517 -0.42375,-0.0724 -0.20153,-0.0258 -0.48059,-0.0258 -0.44958,0 -0.86816,0.20154 -0.41858,0.19637 -0.80615,0.5116 v 4.09794 h -0.97152 v -5.77226 h 0.97152 v 0.85266 q 0.57877,-0.46509 1.01802,-0.65629 0.44442,-0.19637 0.90434,-0.19637 0.25321,0 0.3669,0.0155 0.11369,0.0103 0.34107,0.0465 z"
                         style="fill:#55b3da;fill-opacity:1"
                         id="path961"
                         inkscape:connector-curvature="0" />
                    </g>
                    <g
                       aria-label="manager?"
                       style="font-style:normal;font-variant:normal;font-weight:normal;font-stretch:normal;font-size:10.58333302px;line-height:1.25;font-family:sans-serif;-inkscape-font-specification:'sans-serif, Normal';font-variant-ligatures:normal;font-variant-caps:normal;font-variant-numeric:normal;font-feature-settings:normal;text-align:start;letter-spacing:0px;word-spacing:0px;writing-mode:lr-tb;text-anchor:start;fill:#55b3da;fill-opacity:1;stroke:none;stroke-width:0.26458332"
                       id="text879-6">
                      <path
                         d="m 116.87165,144.34113 h -0.97152 v -3.28663 q 0,-0.37207 -0.0362,-0.7183 -0.031,-0.34623 -0.13953,-0.55294 -0.11885,-0.2222 -0.34106,-0.33589 -0.22221,-0.11369 -0.64079,-0.11369 -0.40824,0 -0.81649,0.20671 -0.40824,0.20153 -0.81648,0.51676 0.0155,0.11886 0.0258,0.27905 0.0103,0.15503 0.0103,0.31006 v 3.69487 h -0.97152 v -3.28663 q 0,-0.3824 -0.0362,-0.72347 -0.031,-0.34623 -0.13953,-0.55293 -0.11885,-0.22221 -0.34106,-0.33073 -0.22221,-0.11369 -0.64079,-0.11369 -0.39791,0 -0.80098,0.19637 -0.39791,0.19637 -0.79582,0.50126 v 4.30982 h -0.97152 v -5.77226 h 0.97152 v 0.64079 q 0.45475,-0.37724 0.90434,-0.58912 0.45475,-0.21187 0.96635,-0.21187 0.58911,0 0.99735,0.24805 0.41341,0.24804 0.61495,0.68729 0.58911,-0.49609 1.07487,-0.71313 0.48576,-0.22221 1.0387,-0.22221 0.95084,0 1.40043,0.57878 0.45475,0.57361 0.45475,1.60713 z"
                         style="fill:#55b3da;fill-opacity:1"
                         id="path964"
                         inkscape:connector-curvature="0" />
                      <path
                         d="m 123.22785,144.34113 h -0.96635 v -0.61495 q -0.12919,0.0879 -0.3514,0.24804 -0.21704,0.15503 -0.42374,0.24805 -0.24288,0.11886 -0.55811,0.19637 -0.31523,0.0827 -0.73897,0.0827 -0.78032,0 -1.32292,-0.51676 -0.5426,-0.51677 -0.5426,-1.31775 0,-0.65629 0.27905,-1.05937 0.28422,-0.40824 0.80615,-0.64079 0.5271,-0.23254 1.26608,-0.31522 0.73897,-0.0827 1.58646,-0.12403 v -0.14986 q 0,-0.33073 -0.11885,-0.54777 -0.11369,-0.21704 -0.33073,-0.34106 -0.20671,-0.11886 -0.4961,-0.1602 -0.28938,-0.0413 -0.60461,-0.0413 -0.38241,0 -0.85266,0.10335 -0.47026,0.0982 -0.97152,0.28939 h -0.0517 v -0.98702 q 0.28422,-0.0775 0.82165,-0.17053 0.53744,-0.093 1.05937,-0.093 0.60978,0 1.05936,0.10335 0.45476,0.0982 0.78549,0.34107 0.32556,0.23771 0.49609,0.61495 0.17053,0.37724 0.17053,0.93534 z m -0.96635,-1.42111 v -1.60713 q -0.44441,0.0258 -1.04903,0.0775 -0.59945,0.0517 -0.95085,0.14986 -0.41857,0.11886 -0.67696,0.37207 -0.25838,0.24805 -0.25838,0.6873 0,0.49609 0.29972,0.74931 0.29973,0.24804 0.91468,0.24804 0.51159,0 0.93534,-0.19637 0.42375,-0.20153 0.78548,-0.48059 z"
                         style="fill:#55b3da;fill-opacity:1"
                         id="path966"
                         inkscape:connector-curvature="0" />
                      <path
                         d="m 129.93545,144.34113 h -0.97152 v -3.28663 q 0,-0.3979 -0.0465,-0.74414 -0.0465,-0.3514 -0.17054,-0.54777 -0.12919,-0.21704 -0.37207,-0.32039 -0.24288,-0.10852 -0.63045,-0.10852 -0.39791,0 -0.83199,0.19637 -0.43408,0.19637 -0.83199,0.50126 v 4.30982 h -0.97152 v -5.77226 h 0.97152 v 0.64079 q 0.45475,-0.37724 0.94051,-0.58912 0.48576,-0.21187 0.99736,-0.21187 0.93534,0 1.42627,0.56327 0.49092,0.56328 0.49092,1.62264 z"
                         style="fill:#55b3da;fill-opacity:1"
                         id="path968"
                         inkscape:connector-curvature="0" />
                      <path
                         d="m 136.29165,144.34113 h -0.96635 v -0.61495 q -0.12919,0.0879 -0.3514,0.24804 -0.21704,0.15503 -0.42374,0.24805 -0.24288,0.11886 -0.55811,0.19637 -0.31522,0.0827 -0.73897,0.0827 -0.78032,0 -1.32292,-0.51676 -0.5426,-0.51677 -0.5426,-1.31775 0,-0.65629 0.27905,-1.05937 0.28422,-0.40824 0.80615,-0.64079 0.5271,-0.23254 1.26608,-0.31522 0.73897,-0.0827 1.58646,-0.12403 v -0.14986 q 0,-0.33073 -0.11885,-0.54777 -0.11369,-0.21704 -0.33073,-0.34106 -0.20671,-0.11886 -0.4961,-0.1602 -0.28938,-0.0413 -0.60461,-0.0413 -0.38241,0 -0.85266,0.10335 -0.47026,0.0982 -0.97152,0.28939 h -0.0517 v -0.98702 q 0.28422,-0.0775 0.82165,-0.17053 0.53744,-0.093 1.05937,-0.093 0.60978,0 1.05936,0.10335 0.45476,0.0982 0.78549,0.34107 0.32556,0.23771 0.49609,0.61495 0.17053,0.37724 0.17053,0.93534 z m -0.96635,-1.42111 v -1.60713 q -0.44441,0.0258 -1.04903,0.0775 -0.59944,0.0517 -0.95084,0.14986 -0.41858,0.11886 -0.67697,0.37207 -0.25838,0.24805 -0.25838,0.6873 0,0.49609 0.29973,0.74931 0.29972,0.24804 0.91467,0.24804 0.51159,0 0.93534,-0.19637 0.42375,-0.20153 0.78548,-0.48059 z"
                         style="fill:#55b3da;fill-opacity:1"
                         id="path970"
                         inkscape:connector-curvature="0" />
                      <path
                         d="m 142.85456,143.68483 q 0,1.46762 -0.66663,2.15491 -0.66662,0.6873 -2.05155,0.6873 -0.45992,0 -0.89917,-0.0672 -0.43408,-0.062 -0.85783,-0.18087 v -0.99219 h 0.0517 q 0.23771,0.093 0.75447,0.22738 0.51677,0.13953 1.03353,0.13953 0.4961,0 0.82166,-0.11886 0.32556,-0.11885 0.50643,-0.33073 0.18086,-0.20154 0.25838,-0.48576 0.0775,-0.28422 0.0775,-0.63562 v -0.5271 q -0.43925,0.3514 -0.84232,0.5271 -0.39791,0.17054 -1.01803,0.17054 -1.03353,0 -1.64331,-0.74415 -0.60461,-0.7493 -0.60461,-2.10839 0,-0.74414 0.2067,-1.28158 0.21188,-0.5426 0.57361,-0.93534 0.3359,-0.3669 0.81649,-0.56844 0.48059,-0.20671 0.95601,-0.20671 0.50126,0 0.83716,0.10335 0.34107,0.0982 0.7183,0.3049 l 0.062,-0.24805 h 0.90951 z m -0.97152,-0.93017 v -3.1471 q -0.38757,-0.1757 -0.72347,-0.24804 -0.33073,-0.0775 -0.66146,-0.0775 -0.80098,0 -1.2609,0.53744 -0.45992,0.53743 -0.45992,1.56063 0,0.97151 0.34106,1.47277 0.34107,0.50127 1.13172,0.50127 0.42374,0 0.84749,-0.1602 0.42892,-0.16537 0.78548,-0.43925 z"
                         style="fill:#55b3da;fill-opacity:1"
                         id="path972"
                         inkscape:connector-curvature="0" />
                      <path
                         d="m 149.59833,141.55577 h -4.25297 q 0,0.53226 0.1602,0.93017 0.1602,0.39274 0.43925,0.64596 0.26872,0.24804 0.63562,0.37207 0.37207,0.12402 0.81649,0.12402 0.58911,0 1.18339,-0.23254 0.59944,-0.23771 0.85266,-0.46509 h 0.0517 v 1.05937 q -0.49093,0.2067 -1.00253,0.34623 -0.51159,0.13952 -1.07487,0.13952 -1.4366,0 -2.24275,-0.77514 -0.80616,-0.78032 -0.80616,-2.21175 0,-1.41594 0.76998,-2.24793 0.77515,-0.83199 2.03605,-0.83199 1.16789,0 1.79834,0.68213 0.63562,0.68213 0.63562,1.93787 z m -0.94567,-0.74414 q -0.005,-0.76482 -0.38758,-1.18339 -0.37724,-0.41858 -1.15238,-0.41858 -0.78032,0 -1.2454,0.45992 -0.45992,0.45992 -0.52194,1.14205 z"
                         style="fill:#55b3da;fill-opacity:1"
                         id="path974"
                         inkscape:connector-curvature="0" />
                      <path
                         d="m 154.67296,139.62824 h -0.0517 q -0.21704,-0.0517 -0.42374,-0.0724 -0.20154,-0.0258 -0.4806,-0.0258 -0.44958,0 -0.86816,0.20154 -0.41858,0.19637 -0.80615,0.51159 v 4.09795 h -0.97152 v -5.77226 h 0.97152 v 0.85266 q 0.57877,-0.46509 1.01802,-0.65629 0.44442,-0.19637 0.90434,-0.19637 0.25322,0 0.3669,0.0155 0.11369,0.0103 0.34107,0.0465 z"
                         style="fill:#55b3da;fill-opacity:1"
                         id="path976"
                         inkscape:connector-curvature="0" />
                      <path
                         d="m 159.83543,138.45518 q 0,0.50643 -0.18086,0.90434 -0.18087,0.39274 -0.47543,0.69763 -0.28938,0.29456 -0.66662,0.55294 -0.37724,0.25838 -0.80099,0.50126 v 1.16272 h -0.92501 v -1.57613 q 0.3359,-0.19121 0.72347,-0.41858 0.39275,-0.22738 0.64079,-0.45992 0.29973,-0.26872 0.46509,-0.55294 0.16536,-0.28939 0.16536,-0.73381 0,-0.58394 -0.3979,-0.86816 -0.39274,-0.28939 -1.01803,-0.28939 -0.55811,0 -1.05937,0.1757 -0.49609,0.1757 -0.78548,0.35657 h -0.0517 v -1.0542 q 0.36173,-0.13953 0.91467,-0.24805 0.5581,-0.11368 1.0542,-0.11368 1.11104,0 1.75183,0.5426 0.64595,0.53743 0.64595,1.4211 z m -2.04122,5.88595 h -1.05419 v -1.09038 h 1.05419 z"
                         style="fill:#55b3da;fill-opacity:1"
                         id="path978"
                         inkscape:connector-curvature="0" />
                    </g>
                  </g>
                  <path
                     style="fill:#55b3da;fill-opacity:1;stroke-width:0.00183856"
                     inkscape:connector-curvature="0"
                     d="m 134.72807,149.55157 -0.30594,-0.30593 c -0.0184,-0.0184 -0.0184,-0.0482 0,-0.0666 l 0.0666,-0.0666 c 0.0184,-0.0184 0.0482,-0.0184 0.0666,0 l 0.20609,0.20609 0.44144,-0.44143 c 0.0184,-0.0184 0.0482,-0.0184 0.0666,0 l 0.0666,0.0666 c 0.0184,0.0184 0.0184,0.0482 0,0.0666 l -0.54128,0.54127 c -0.0184,0.0184 -0.0482,0.0184 -0.0666,0 z"
                     id="path903" />
                  <path
                     style="fill:#55b3da;fill-opacity:1;stroke-width:0.00183856"
                     inkscape:connector-curvature="0"
                     d="m 126.13459,149.21438 0.18398,-0.18399 c 0.0226,-0.0226 0.0226,-0.0592 0,-0.0818 l -0.0409,-0.0409 c -0.0226,-0.0226 -0.0592,-0.0226 -0.0818,0 l -0.18399,0.18398 -0.18398,-0.18398 c -0.0226,-0.0226 -0.0592,-0.0226 -0.0818,0 l -0.0409,0.0409 c -0.0226,0.0226 -0.0226,0.0592 0,0.0818 l 0.18399,0.18399 -0.18399,0.18398 c -0.0226,0.0226 -0.0226,0.0592 0,0.0818 l 0.0409,0.0409 c 0.0226,0.0226 0.0592,0.0226 0.0818,0 l 0.18398,-0.18398 0.18399,0.18398 c 0.0226,0.0226 0.0592,0.0226 0.0818,0 l 0.0409,-0.0409 c 0.0226,-0.0226 0.0226,-0.0592 0,-0.0818 z"
                     id="path914" />
                </g>
              </g>
              <path
                 id="path836"
                 d="m 114.22898,170.54051 -1.41554,-1.41554 c -0.59937,-0.59937 -0.59936,-1.56856 0,-2.16156 l 12.38899,-12.39563 c 0.59937,-0.59937 1.56857,-0.59937 2.16156,0 l 12.38912,12.38912 c 0.59937,0.59937 0.59937,1.56857 0,2.16156 l -1.41553,1.41553 c -0.60575,0.60575 -1.59407,0.593 -2.18707,-0.0255 l -7.3136,-7.67704 v 18.32544 c 0,0.84803 -0.68226,1.5303 -1.53031,1.5303 h -2.04041 c -0.84805,0 -1.5303,-0.68226 -1.53031,-1.5303 v -18.32541 l -7.31996,7.68342 c -0.59298,0.6249 -1.58133,0.63763 -2.18708,0.0255 z"
                 inkscape:connector-curvature="0"
                 style="fill:currentColor;stroke-width:0.06376284"
                 inkscape:export-xdpi="139.2"
                 inkscape:export-ydpi="139.2" />
            </g>
          </g>
        </g>
      </g>
    </g>
  </g>
  <style
     id="style10">.st0{fill:#333745}</style>
  <style
     id="style10-7">.st0{fill:#333745}</style>
</svg>
